<svg width="15" height="16" viewBox="0 0 15 16" fill="none" xmlns="http://www.w3.org/2000/svg">
<path d="M8.22777 14.192C9.79407 12.7641 12.5807 9.84708 12.5807 7.17014C12.5807 5.68899 12.0126 4.2685 11.0015 3.22117C9.99035 2.17383 8.61894 1.58545 7.18897 1.58545C5.75899 1.58545 4.38759 2.17383 3.37644 3.22117C2.3653 4.2685 1.79724 5.68899 1.79724 7.17014C1.79724 9.84708 4.58297 12.7641 6.15016 14.192C6.43602 14.4563 6.80579 14.6023 7.18897 14.6023C7.57214 14.6023 7.94191 14.4563 8.22777 14.192ZM5.39172 7.17014C5.39172 6.67643 5.58108 6.20293 5.91812 5.85382C6.25517 5.50471 6.71231 5.30858 7.18897 5.30858C7.66562 5.30858 8.12276 5.50471 8.45981 5.85382C8.79686 6.20293 8.98621 6.67643 8.98621 7.17014C8.98621 7.66386 8.79686 8.13736 8.45981 8.48647C8.12276 8.83558 7.66562 9.03171 7.18897 9.03171C6.71231 9.03171 6.25517 8.83558 5.91812 8.48647C5.58108 8.13736 5.39172 7.66386 5.39172 7.17014Z" fill="#009FD9"/>
</svg>
